<svg xmlns="http://www.w3.org/2000/svg" xmlns:xlink="http://www.w3.org/1999/xlink" width="16" height="13" viewBox="0 0 16 13"><defs><path id="dykpa" d="M551.97 6925.5a.5.5 0 0 1-.5.5H536.5a.5.5 0 0 1-.5-.5v-12-.01-.02a.5.5 0 0 1 .13-.3l.01-.04.04-.01a.5.5 0 0 1 .27-.11l.06-.01h15.01c.1.02.19.06.27.12l.03.01.02.04a.5.5 0 0 1 .12.3v.02zm-14.97-1c0 .27.22.5.5.5h12.97a.5.5 0 0 0 .5-.5v-9.98l-6.62 5.3v.03c-.1.1-.24.14-.37.14a.49.49 0 0 1-.35-.14l-.01-.03-6.62-5.3zm6.98-5.63l6.08-4.87H537.9z"/></defs><g><g opacity=".6" transform="translate(-536 -6913)"><use fill="#fff" xlink:href="#dykpa"/></g></g></svg>