<svg xmlns="http://www.w3.org/2000/svg" xmlns:xlink="http://www.w3.org/1999/xlink" width="16" height="16" viewBox="0 0 16 16"><defs><path id="vmasa" d="M551.5 7004H548v3h-8v-3h-3.5a.5.5 0 0 1-.5-.5v-9c0-.28.22-.5.5-.5h15c.28 0 .5.22.5.5v9a.5.5 0 0 1-.5.5zm-10.5 2h6v-5h-6zm10-10.5a.5.5 0 0 0-.5-.5h-13a.5.5 0 0 0-.5.5v7c0 .27.22.5.5.5h2.5v-3h8v3h2.5a.5.5 0 0 0 .5-.5zm-10 1.5v-1h2v2h-2zm-3-1h2v2h-2zm10-5h-8v3h1v-2h6v2h1z"/></defs><g><g opacity=".6" transform="translate(-536 -6991)"><use fill="#fff" xlink:href="#vmasa"/></g></g></svg>