<?xml version="1.0" encoding="utf-8"?><svg xmlns="http://www.w3.org/2000/svg" xmlns:xlink="http://www.w3.org/1999/xlink"><symbol viewBox="0 0 512 512" id="adjust-solid" xmlns="http://www.w3.org/2000/svg"><path d="M8 256c0 137 111 248 248 248s248-111 248-248S393 8 256 8 8 119 8 256zm248 184V72c101.7 0 184 82.3 184 184s-82.3 184-184 184z"/></symbol><symbol viewBox="0 0 31.49 31.49" id="button-arrow" xmlns="http://www.w3.org/2000/svg"><path d="M21.205 5.007a1.112 1.112 0 0 0-1.587 0 1.12 1.12 0 0 0 0 1.571l8.047 8.047H1.111A1.106 1.106 0 0 0 0 15.737c0 .619.492 1.127 1.111 1.127h26.554l-8.047 8.032c-.429.444-.429 1.159 0 1.587a1.112 1.112 0 0 0 1.587 0l9.952-9.952a1.093 1.093 0 0 0 0-1.571l-9.952-9.953z"/></symbol><symbol viewBox="0 0 512 512" id="clock-solid" xmlns="http://www.w3.org/2000/svg"><path d="M256 8C119 8 8 119 8 256s111 248 248 248 248-111 248-248S393 8 256 8zm57.1 350.1L224.9 294c-3.1-2.3-4.9-5.9-4.9-9.7V116c0-6.6 5.4-12 12-12h48c6.6 0 12 5.4 12 12v137.7l63.5 46.2c5.4 3.9 6.5 11.4 2.6 16.8l-28.2 38.8c-3.9 5.3-11.4 6.5-16.8 2.6z"/></symbol><symbol id="left-arrow" viewBox="0 0 512 512" xmlns="http://www.w3.org/2000/svg"><style>.dst0{fill:#fff}</style><path class="dst0" d="M256 0C114.8 0 0 114.8 0 256s114.8 256 256 256 256-114.8 256-256S397.2 0 256 0zm0 486.4C128.9 486.4 25.6 383.1 25.6 256S128.9 25.6 256 25.6 486.4 128.9 486.4 256 383.1 486.4 256 486.4z"/><path class="dst0" d="M367.2 243.2H175.7l50.1-50.1c5-5 5-13.1 0-18.1-2.5-2.5-5.7-3.8-9.1-3.8s-6.6 1.3-9.1 3.8l-71.9 71.9c-5 5-5 13.1 0 18.1l71.9 71.9c5 5 13.1 5 18.1 0 5-5 5-13.1 0-18.1l-50.1-50.1h191.6c7.1 0 12.8-5.7 12.8-12.8s-5.7-12.7-12.8-12.7z"/></symbol><symbol viewBox="0 0 86.63 17.313" id="logo" xmlns="http://www.w3.org/2000/svg"><defs><style>.ecls-1{fill:#323641;fill-rule:evenodd}</style></defs><path id="eМой_Мир" data-name="Мой Мир" class="ecls-1" d="M3827.85 831.606l-.04-12.731h-2.96l-4.37 7.348-4.47-7.348h-2.96v12.731h3.31V825l3.27 5.347h1.6l3.27-5.492.02 6.747h3.33zm6.91.163a6.148 6.148 0 0 0 2.87-.654 4.94 4.94 0 0 0 1.99-1.819 5.235 5.235 0 0 0 0-5.265 4.89 4.89 0 0 0-1.99-1.8 6.676 6.676 0 0 0-5.73 0 4.869 4.869 0 0 0-1.99 1.809 4.969 4.969 0 0 0 2 7.075 6.123 6.123 0 0 0 2.85.654zm0-2.746a1.939 1.939 0 0 1-1.49-.627 2.445 2.445 0 0 1-.58-1.737 2.385 2.385 0 0 1 .58-1.709 2.1 2.1 0 0 1 2.98 0 2.385 2.385 0 0 1 .58 1.709 2.445 2.445 0 0 1-.58 1.737 1.939 1.939 0 0 1-1.49.627zm6.73 2.583h3.2l4.09-5.183v5.183h3.46v-9.857h-3.18l-4.13 5.165v-5.165h-3.44v9.857zm5.15-10.8a3.917 3.917 0 0 0 2.61-.737 2.854 2.854 0 0 0 .84-2.264h-2.27a1.351 1.351 0 0 1-.3.946 1.162 1.162 0 0 1-.9.327 1.082 1.082 0 0 1-.87-.318 1.5 1.5 0 0 1-.3-.955h-2.23a2.923 2.923 0 0 0 .84 2.264 3.793 3.793 0 0 0 2.58.737zm27.31 10.8l-.03-12.731h-2.97l-4.36 7.348-4.48-7.348h-2.96v12.731h3.31V825l3.27 5.347h1.6l3.28-5.492.01 6.747h3.33zm2.06 0h3.2l4.09-5.183v5.183h3.46v-9.857h-3.19l-4.13 5.165v-5.165h-3.43v9.857zm18.82-10.021a3.581 3.581 0 0 0-2.91 1.146v-.982h-3.29v13.385h3.45v-4.4a3.688 3.688 0 0 0 2.75 1.036 4.877 4.877 0 0 0 2.45-.627 4.575 4.575 0 0 0 1.74-1.782 5.86 5.86 0 0 0 0-5.365 4.585 4.585 0 0 0-1.74-1.783 4.877 4.877 0 0 0-2.45-.627zm-.73 7.438a1.953 1.953 0 0 1-1.49-.627 2.836 2.836 0 0 1 0-3.437 1.951 1.951 0 0 1 1.49-.628 1.921 1.921 0 0 1 1.49.628 2.8 2.8 0 0 1 0 3.437 1.924 1.924 0 0 1-1.49.627z" transform="translate(-3813.03 -817.812)"/></symbol><symbol viewBox="0 0 16 16" id="phone-call-icon" xmlns="http://www.w3.org/2000/svg"><defs><style>.fcls-1{fill:#fff;fill-rule:evenodd;opacity:.6}</style></defs><path id="fPhone_Call_Icon" data-name="Phone Call Icon" class="fcls-1" d="M4802.97 905.866v-.041c.41-.281 2.7-1.786 3.13-2.058a.745.745 0 0 1 .32.1c.17.089.68.374 1.39.776l.55.313.52-.362a20.716 20.716 0 0 0 2.5-2.191 19.444 19.444 0 0 0 2.2-2.5l.37-.518-.32-.549c-.3-.533-.67-1.177-.78-1.385a.723.723 0 0 1-.1-.315v-.011c.25-.383 1.8-2.711 2.08-3.122a.317.317 0 0 1 .23.074 7.327 7.327 0 0 1 1.93 1.882c-.09 1.871-1.74 4.5-4.65 7.4s-5.54 4.549-7.41 4.635a7.223 7.223 0 0 1-1.89-1.909.429.429 0 0 1-.07-.218m-.97 0a1.38 1.38 0 0 0 .25.787c.02.024 1.69 2.37 2.66 2.337 2.73-.085 5.93-2.727 8.14-4.925s4.85-5.4 4.94-8.124v-.02c0-.958-2.32-2.635-2.34-2.651a1.152 1.152 0 0 0-1.61.12c-.17.244-1.95 2.914-2.16 3.242a1.032 1.032 0 0 0-.13.5 1.818 1.818 0 0 0 .21.779c.14.257.58 1.035.8 1.416a18.218 18.218 0 0 1-2.09 2.365 18.561 18.561 0 0 1-2.37 2.081c-.38-.218-1.16-.66-1.42-.8a1.309 1.309 0 0 0-1.29-.076c-.31.2-2.97 1.963-3.22 2.146a.983.983 0 0 0-.37.814z" transform="translate(-4802 -893)"/></symbol><symbol viewBox="0 0 12 16" id="pin-map-icon" xmlns="http://www.w3.org/2000/svg"><defs><style>.gcls-1{fill:#fff;fill-rule:evenodd;opacity:.6}</style></defs><path id="gPin_Map_Icon" data-name="Pin Map Icon" class="gcls-1" d="M3812 900a6 6 0 0 1 12 0c0 3.315-6 10-6 10s-6-6.688-6-10zm6-5a5 5 0 0 0-5 5c0 1.909 2.82 5.884 5 8.476 2.18-2.592 5-6.567 5-8.476a5 5 0 0 0-5-5zm-2 4a2 2 0 1 1 2 2 2 2 0 0 1-2-2zm3 0a1 1 0 1 0-1 1 1 1 0 0 0 1-1z" transform="translate(-3812 -894)"/></symbol><symbol id="right-arrow" viewBox="0 0 512 512" xmlns="http://www.w3.org/2000/svg"><style>.hst0{fill:#fff}</style><path class="hst0" d="M256 512c141.2 0 256-114.8 256-256S397.2 0 256 0 0 114.8 0 256s114.8 256 256 256zm0-486.4C383.1 25.6 486.4 129 486.4 256S383.1 486.4 256 486.4 25.6 383.1 25.6 256 128.9 25.6 256 25.6z"/><path class="hst0" d="M144.8 268.8h191.5L286.2 319c-5 5-5 13.1 0 18.1 2.5 2.5 5.7 3.8 9.1 3.8 3.3 0 6.6-1.3 9.1-3.8l71.9-71.9c5-5 5-13.1 0-18.1l-71.9-71.9c-5-5-13.1-5-18.1 0-5 5-5 13.1 0 18.1l50.1 50.1H144.8c-7.1 0-12.8 5.7-12.8 12.8 0 7 5.7 12.6 12.8 12.6z"/></symbol><symbol viewBox="0 0 384 512" id="ruble-sign-solid" xmlns="http://www.w3.org/2000/svg"><path d="M239.4 320c85.1 0 144.6-59.5 144.6-144.9S324.5 32 239.4 32H76c-6.6 0-12 5.4-12 12v206.6H12c-6.6 0-12 5.4-12 12V308c0 6.6 5.4 12 12 12h52v32H12c-6.6 0-12 5.4-12 12v40c0 6.6 5.4 12 12 12h52v52c0 6.6 5.4 12 12 12h58.6c6.6 0 12-5.4 12-12v-52H308c6.6 0 12-5.4 12-12v-40c0-6.6-5.4-12-12-12H146.6v-32h92.8zm-92.8-219.3h78.7c46.7 0 74.9 29.1 74.9 74.3 0 45.8-28.2 75.6-76.2 75.6h-77.4V100.7z"/></symbol></svg>