<?xml version="1.0" encoding="utf-8"?>
<!-- Generator: Adobe Illustrator 22.1.0, SVG Export Plug-In . SVG Version: 6.00 Build 0)  -->
<svg version="1.0" id="Capa_1" xmlns="http://www.w3.org/2000/svg" xmlns:xlink="http://www.w3.org/1999/xlink" x="0px" y="0px"
	 viewBox="0 0 512 512" style="enable-background:new 0 0 512 512;" xml:space="preserve">
<style type="text/css">
	.st0{fill:#FFFFFF;}
</style>
<g>
	<g>
		<path class="st0" d="M256,0C114.8,0,0,114.8,0,256s114.8,256,256,256s256-114.8,256-256S397.2,0,256,0z M256,486.4
			C128.9,486.4,25.6,383.1,25.6,256S128.9,25.6,256,25.6S486.4,128.9,486.4,256S383.1,486.4,256,486.4z"/>
		<path class="st0" d="M367.2,243.2H175.7l50.1-50.1c5-5,5-13.1,0-18.1c-2.5-2.5-5.7-3.8-9.1-3.8s-6.6,1.3-9.1,3.8l-71.9,71.9
			c-5,5-5,13.1,0,18.1l71.9,71.9c5,5,13.1,5,18.1,0c5-5,5-13.1,0-18.1l-50.1-50.1h191.6c7.1,0,12.8-5.7,12.8-12.8
			S374.3,243.2,367.2,243.2z"/>
	</g>
</g>
</svg>
