<svg xmlns="http://www.w3.org/2000/svg" width="86.63" height="17.313" viewBox="0 0 86.63 17.313">
  <metadata><?xpacket begin="﻿" id="W5M0MpCehiHzreSzNTczkc9d"?>
<x:xmpmeta xmlns:x="adobe:ns:meta/" x:xmptk="Adobe XMP Core 5.6-c140 79.160451, 2017/05/06-01:08:21        ">
   <rdf:RDF xmlns:rdf="http://www.w3.org/1999/02/22-rdf-syntax-ns#">
      <rdf:Description rdf:about=""/>
   </rdf:RDF>
</x:xmpmeta>
                                                                                                    
                                                                                                    
                                                                                                    
                                                                                                    
                                                                                                    
                                                                                                    
                                                                                                    
                                                                                                    
                                                                                                    
                                                                                                    
                                                                                                    
                                                                                                    
                                                                                                    
                                                                                                    
                                                                                                    
                                                                                                    
                                                                                                    
                                                                                                    
                                                                                                    
                                                                                                    
                           
<?xpacket end="w"?></metadata>
<defs>
    <style>
      .cls-1 {
        fill: #323641;
        fill-rule: evenodd;
      }
    </style>
  </defs>
  <path id="Мой_Мир" data-name="Мой Мир" class="cls-1" d="M3827.85,831.606l-0.04-12.731h-2.96l-4.37,7.348-4.47-7.348h-2.96v12.731h3.31V825l3.27,5.347h1.6l3.27-5.492,0.02,6.747h3.33Zm6.91,0.163a6.148,6.148,0,0,0,2.87-.654,4.94,4.94,0,0,0,1.99-1.819,5.235,5.235,0,0,0,0-5.265,4.89,4.89,0,0,0-1.99-1.8,6.676,6.676,0,0,0-5.73,0,4.869,4.869,0,0,0-1.99,1.809,4.969,4.969,0,0,0,2,7.075,6.123,6.123,0,0,0,2.85.654h0Zm0-2.746a1.939,1.939,0,0,1-1.49-.627,2.445,2.445,0,0,1-.58-1.737,2.385,2.385,0,0,1,.58-1.709,2.1,2.1,0,0,1,2.98,0,2.385,2.385,0,0,1,.58,1.709,2.445,2.445,0,0,1-.58,1.737,1.939,1.939,0,0,1-1.49.627h0Zm6.73,2.583h3.2l4.09-5.183v5.183h3.46v-9.857h-3.18l-4.13,5.165v-5.165h-3.44v9.857Zm5.15-10.8a3.917,3.917,0,0,0,2.61-.737,2.854,2.854,0,0,0,.84-2.264h-2.27a1.351,1.351,0,0,1-.3.946,1.162,1.162,0,0,1-.9.327,1.082,1.082,0,0,1-.87-0.318,1.5,1.5,0,0,1-.3-0.955h-2.23a2.923,2.923,0,0,0,.84,2.264,3.793,3.793,0,0,0,2.58.737h0Zm27.31,10.8-0.03-12.731h-2.97l-4.36,7.348-4.48-7.348h-2.96v12.731h3.31V825l3.27,5.347h1.6l3.28-5.492,0.01,6.747h3.33Zm2.06,0h3.2l4.09-5.183v5.183h3.46v-9.857h-3.19l-4.13,5.165v-5.165h-3.43v9.857Zm18.82-10.021a3.581,3.581,0,0,0-2.91,1.146v-0.982h-3.29v13.385h3.45v-4.4a3.688,3.688,0,0,0,2.75,1.036,4.877,4.877,0,0,0,2.45-.627,4.575,4.575,0,0,0,1.74-1.782,5.86,5.86,0,0,0,0-5.365,4.585,4.585,0,0,0-1.74-1.783,4.877,4.877,0,0,0-2.45-.627h0Zm-0.73,7.438a1.953,1.953,0,0,1-1.49-.627,2.836,2.836,0,0,1,0-3.437,1.951,1.951,0,0,1,1.49-.628,1.921,1.921,0,0,1,1.49.628,2.8,2.8,0,0,1,0,3.437,1.924,1.924,0,0,1-1.49.627h0Z" transform="translate(-3813.03 -817.812)"/>
</svg>
