<svg xmlns="http://www.w3.org/2000/svg" width="16" height="16" viewBox="0 0 16 16">
  <metadata><?xpacket begin="﻿" id="W5M0MpCehiHzreSzNTczkc9d"?>
<x:xmpmeta xmlns:x="adobe:ns:meta/" x:xmptk="Adobe XMP Core 5.6-c140 79.160451, 2017/05/06-01:08:21        ">
   <rdf:RDF xmlns:rdf="http://www.w3.org/1999/02/22-rdf-syntax-ns#">
      <rdf:Description rdf:about=""/>
   </rdf:RDF>
</x:xmpmeta>
                                                                                                    
                                                                                                    
                                                                                                    
                                                                                                    
                                                                                                    
                                                                                                    
                                                                                                    
                                                                                                    
                                                                                                    
                                                                                                    
                                                                                                    
                                                                                                    
                                                                                                    
                                                                                                    
                                                                                                    
                                                                                                    
                                                                                                    
                                                                                                    
                                                                                                    
                                                                                                    
                           
<?xpacket end="w"?></metadata>
<defs>
    <style>
      .cls-1 {
        fill: #fff;
        fill-rule: evenodd;
        opacity: 0.6;
      }
    </style>
  </defs>
  <path id="Phone_Call_Icon" data-name="Phone Call Icon" class="cls-1" d="M4802.97,905.866v-0.041c0.41-.281,2.7-1.786,3.13-2.058a0.745,0.745,0,0,1,.32.1c0.17,0.089.68,0.374,1.39,0.776l0.55,0.313,0.52-.362a20.716,20.716,0,0,0,2.5-2.191,19.444,19.444,0,0,0,2.2-2.5l0.37-.518-0.32-.549c-0.3-.533-0.67-1.177-0.78-1.385a0.723,0.723,0,0,1-.1-0.315v-0.011c0.25-.383,1.8-2.711,2.08-3.122a0.317,0.317,0,0,1,.23.074,7.327,7.327,0,0,1,1.93,1.882c-0.09,1.871-1.74,4.5-4.65,7.4s-5.54,4.549-7.41,4.635a7.223,7.223,0,0,1-1.89-1.909,0.429,0.429,0,0,1-.07-0.218m-0.97,0a1.38,1.38,0,0,0,.25.787c0.02,0.024,1.69,2.37,2.66,2.337,2.73-.085,5.93-2.727,8.14-4.925s4.85-5.4,4.94-8.124v-0.02c0-.958-2.32-2.635-2.34-2.651a1.152,1.152,0,0,0-1.61.12c-0.17.244-1.95,2.914-2.16,3.242a1.032,1.032,0,0,0-.13.5,1.818,1.818,0,0,0,.21.779c0.14,0.257.58,1.035,0.8,1.416a18.218,18.218,0,0,1-2.09,2.365,18.561,18.561,0,0,1-2.37,2.081c-0.38-.218-1.16-0.66-1.42-0.8a1.309,1.309,0,0,0-1.29-.076c-0.31.2-2.97,1.963-3.22,2.146a0.983,0.983,0,0,0-.37.814h0Z" transform="translate(-4802 -893)"/>
</svg>
