<svg xmlns="http://www.w3.org/2000/svg" width="12" height="16" viewBox="0 0 12 16">
  <metadata><?xpacket begin="﻿" id="W5M0MpCehiHzreSzNTczkc9d"?>
<x:xmpmeta xmlns:x="adobe:ns:meta/" x:xmptk="Adobe XMP Core 5.6-c140 79.160451, 2017/05/06-01:08:21        ">
   <rdf:RDF xmlns:rdf="http://www.w3.org/1999/02/22-rdf-syntax-ns#">
      <rdf:Description rdf:about=""/>
   </rdf:RDF>
</x:xmpmeta>
                                                                                                    
                                                                                                    
                                                                                                    
                                                                                                    
                                                                                                    
                                                                                                    
                                                                                                    
                                                                                                    
                                                                                                    
                                                                                                    
                                                                                                    
                                                                                                    
                                                                                                    
                                                                                                    
                                                                                                    
                                                                                                    
                                                                                                    
                                                                                                    
                                                                                                    
                                                                                                    
                           
<?xpacket end="w"?></metadata>
<defs>
    <style>
      .cls-1 {
        fill: #fff;
        fill-rule: evenodd;
        opacity: 0.6;
      }
    </style>
  </defs>
  <path id="Pin_Map_Icon" data-name="Pin Map Icon" class="cls-1" d="M3812,900a6,6,0,0,1,12,0c0,3.315-6,10-6,10S3812,903.312,3812,900Zm6-5a5,5,0,0,0-5,5c0,1.909,2.82,5.884,5,8.476,2.18-2.592,5-6.567,5-8.476A5,5,0,0,0,3818,895Zm-2,4a2,2,0,1,1,2,2A2,2,0,0,1,3816,899Zm3,0a1,1,0,1,0-1,1A1,1,0,0,0,3819,899Z" transform="translate(-3812 -894)"/>
</svg>
