<?xml version="1.0" encoding="utf-8"?>
<!-- Generator: Adobe Illustrator 22.1.0, SVG Export Plug-In . SVG Version: 6.00 Build 0)  -->
<svg version="1.0" id="Capa_1" xmlns="http://www.w3.org/2000/svg" xmlns:xlink="http://www.w3.org/1999/xlink" x="0px" y="0px"
	 viewBox="0 0 512 512" style="enable-background:new 0 0 512 512;" xml:space="preserve">
<style type="text/css">
	.st0{fill:#FFFFFF;}
</style>
<g>
	<g>
		<path class="st0" d="M256,512c141.2,0,256-114.8,256-256S397.2,0,256,0S0,114.8,0,256S114.8,512,256,512z M256,25.6
			c127.1,0,230.4,103.4,230.4,230.4S383.1,486.4,256,486.4S25.6,383.1,25.6,256S128.9,25.6,256,25.6z"/>
		<path class="st0" d="M144.8,268.8h191.5L286.2,319c-5,5-5,13.1,0,18.1c2.5,2.5,5.7,3.8,9.1,3.8c3.3,0,6.6-1.3,9.1-3.8l71.9-71.9
			c5-5,5-13.1,0-18.1l-71.9-71.9c-5-5-13.1-5-18.1,0c-5,5-5,13.1,0,18.1l50.1,50.1H144.8c-7.1,0-12.8,5.7-12.8,12.8
			C132,263.2,137.7,268.8,144.8,268.8z"/>
	</g>
</g>
</svg>
