<?xml version="1.0" encoding="utf-8"?>
<!-- Generator: Adobe Illustrator 22.1.0, SVG Export Plug-In . SVG Version: 6.00 Build 0)  -->
<svg version="1.0" id="Слой_1" xmlns="http://www.w3.org/2000/svg" xmlns:xlink="http://www.w3.org/1999/xlink" x="0px" y="0px"
	 viewBox="0 0 384 512" style="enable-background:new 0 0 384 512;" xml:space="preserve">
<path d="M239.4,320c85.1,0,144.6-59.5,144.6-144.9S324.5,32,239.4,32H76c-6.6,0-12,5.4-12,12v206.6H12c-6.6,0-12,5.4-12,12V308
	c0,6.6,5.4,12,12,12h52v32H12c-6.6,0-12,5.4-12,12v40c0,6.6,5.4,12,12,12h52v52c0,6.6,5.4,12,12,12h58.6c6.6,0,12-5.4,12-12v-52H308
	c6.6,0,12-5.4,12-12v-40c0-6.6-5.4-12-12-12H146.6v-32H239.4z M146.6,100.7h78.7c46.7,0,74.9,29.1,74.9,74.3
	c0,45.8-28.2,75.6-76.2,75.6h-77.4V100.7z"/>
</svg>
